<svg xmlns="http://www.w3.org/2000/svg" viewBox="0 0 267.66 33.2"><defs><style>.cls-1{fill:#fff;}</style></defs><g id="Layer_2" data-name="Layer 2"><g id="Layer_2-2" data-name="Layer 2"><path class="cls-1" d="M57.38,23.74V9.18h6a4.23,4.23,0,0,1,2.26.61,4.58,4.58,0,0,1,2.22,4,4.68,4.68,0,0,1-2.22,4,4.16,4.16,0,0,1-2.26.63H60.08v5.32Zm2.7-7.82h3.17a1.66,1.66,0,0,0,.94-.29,2.06,2.06,0,0,0,.69-.77,2.27,2.27,0,0,0,.26-1.08,2.2,2.2,0,0,0-.26-1.07,2.07,2.07,0,0,0-.69-.75,1.65,1.65,0,0,0-.94-.28H60.08Z"/><path class="cls-1" d="M74.11,23.74V9.18h6.32a4.78,4.78,0,0,1,4.11,2.28,4.51,4.51,0,0,1,.63,2.36,4.4,4.4,0,0,1-.63,2.3,4.75,4.75,0,0,1-4.11,2.28H76.75v5.34Zm2.64-7.69h3.7a2,2,0,0,0,1-.28,2,2,0,0,0,.7-.78,2.55,2.55,0,0,0,.25-1.11,2.17,2.17,0,0,0-.32-1.18,2,2,0,0,0-.87-.79A2.67,2.67,0,0,0,80,11.62H76.75Zm5.8,7.69-3.7-6.57,2.79-.52,4.11,7.11Z"/><path class="cls-1" d="M98,24a7.41,7.41,0,0,1-2.89-.56,6.9,6.9,0,0,1-2.32-1.57,7.05,7.05,0,0,1-1.53-2.38,8.16,8.16,0,0,1-.54-3,8.07,8.07,0,0,1,.54-3,7,7,0,0,1,3.85-4A7.41,7.41,0,0,1,98,8.93a7.51,7.51,0,0,1,2.91.56,7,7,0,0,1,2.31,1.58,7.33,7.33,0,0,1,1.52,2.39,8.49,8.49,0,0,1,0,6,7.33,7.33,0,0,1-1.52,2.39,6.74,6.74,0,0,1-2.31,1.58A7.51,7.51,0,0,1,98,24Zm0-2.58A4.51,4.51,0,0,0,99.83,21a4.14,4.14,0,0,0,1.42-1,5.19,5.19,0,0,0,1-1.57,5.42,5.42,0,0,0,.34-2,5.33,5.33,0,0,0-.34-2,5.07,5.07,0,0,0-1-1.57,4.14,4.14,0,0,0-1.42-1,4.64,4.64,0,0,0-3.63,0,4,4,0,0,0-1.44,1,4.69,4.69,0,0,0-.93,1.56,5.4,5.4,0,0,0-.34,2,5.51,5.51,0,0,0,.34,2A4.84,4.84,0,0,0,94.76,20a4.13,4.13,0,0,0,1.44,1A4.5,4.5,0,0,0,98,21.37Z"/><path class="cls-1" d="M111.55,23.74V9.18h6a4.26,4.26,0,0,1,2.26.61,4.52,4.52,0,0,1,1.61,1.64,4.57,4.57,0,0,1,.6,2.33,4.68,4.68,0,0,1-.6,2.36,4.61,4.61,0,0,1-1.61,1.67,4.18,4.18,0,0,1-2.26.63h-3.35v5.32Zm2.7-7.82h3.16a1.66,1.66,0,0,0,1-.29,2.24,2.24,0,0,0,.69-.77,2.27,2.27,0,0,0,.26-1.08,2.2,2.2,0,0,0-.26-1.07,2.26,2.26,0,0,0-.69-.75,1.66,1.66,0,0,0-1-.28h-3.16Z"/><path class="cls-1" d="M128.27,23.74V9.18h9.53v2.46h-6.86v9.65h6.94v2.45Zm1.25-6.24V15.09h7.22V17.5Z"/><path class="cls-1" d="M144.6,23.74V9.18h6.33a4.76,4.76,0,0,1,2.39.62A4.62,4.62,0,0,1,155,11.46a4.42,4.42,0,0,1,.64,2.36,4.31,4.31,0,0,1-.64,2.3,4.67,4.67,0,0,1-1.7,1.66,4.77,4.77,0,0,1-2.4.62h-3.69v5.34Zm2.64-7.69H151a2,2,0,0,0,1.05-.28,1.94,1.94,0,0,0,.69-.78,2.41,2.41,0,0,0,.25-1.11,2.11,2.11,0,0,0-1.18-2,2.72,2.72,0,0,0-1.29-.29h-3.23Zm5.81,7.69-3.71-6.57,2.79-.52,4.12,7.11Z"/><path class="cls-1" d="M164.92,23.74V11.68h-4.16V9.18h11.15v2.5h-4.28V23.74Z"/><path class="cls-1" d="M182,23.74V16.48l.15,1-5.89-8.32h3.16l4.5,6.45-1-.06L187,9.18h3l-5.64,8.55.32-1.41v7.42Z"/><path class="cls-1" d="M211,24a7.51,7.51,0,0,1-2.89-.54,6.6,6.6,0,0,1-2.27-1.55,7.22,7.22,0,0,1-1.49-2.39,8.46,8.46,0,0,1-.53-3,7.47,7.47,0,0,1,.57-2.93A7.29,7.29,0,0,1,206,11.14a6.92,6.92,0,0,1,2.33-1.58A7.24,7.24,0,0,1,211.17,9a6.87,6.87,0,0,1,2.06.32,7,7,0,0,1,1.83.86,5.7,5.7,0,0,1,1.39,1.28l-1.73,1.89a6.76,6.76,0,0,0-1.11-.94,5,5,0,0,0-1.18-.59,4.14,4.14,0,0,0-1.26-.19,4.51,4.51,0,0,0-1.8.35,4.37,4.37,0,0,0-1.46,1,4.81,4.81,0,0,0-1,1.53,5.34,5.34,0,0,0-.35,2,5.52,5.52,0,0,0,.34,2,4.46,4.46,0,0,0,1,1.54,4.26,4.26,0,0,0,1.52,1,5.31,5.31,0,0,0,1.94.34,4.62,4.62,0,0,0,1.34-.19,4.55,4.55,0,0,0,1.19-.53,5.23,5.23,0,0,0,1-.8L216.24,22a4.62,4.62,0,0,1-1.33,1,7.35,7.35,0,0,1-1.86.72A8.53,8.53,0,0,1,211,24Z"/><path class="cls-1" d="M220.76,23.74l5.68-14.56H229l5.64,14.56H231.8l-3.12-8.28c-.07-.16-.16-.43-.28-.79s-.24-.75-.38-1.17-.27-.82-.38-1.19-.19-.63-.25-.8l.52,0c-.08.28-.18.59-.29.94l-.35,1.08-.37,1.08c-.12.35-.22.66-.32.94l-3.12,8.21Zm2.58-3.32.93-2.36h6.64l1,2.36Z"/><path class="cls-1" d="M240.23,23.74V9.18h6.32a4.76,4.76,0,0,1,2.39.62,4.65,4.65,0,0,1,1.72,1.66,4.51,4.51,0,0,1,.63,2.36,4.4,4.4,0,0,1-.63,2.3A4.62,4.62,0,0,1,249,17.78a4.71,4.71,0,0,1-2.4.62h-3.68v5.34Zm2.64-7.69h3.7a2,2,0,0,0,1.05-.28,2,2,0,0,0,.7-.78,2.41,2.41,0,0,0,.25-1.11,2.25,2.25,0,0,0-.31-1.18,2.11,2.11,0,0,0-.88-.79,2.67,2.67,0,0,0-1.29-.29h-3.22Zm5.8,7.69L245,17.17l2.79-.52,4.12,7.11Z"/><path class="cls-1" d="M258.05,23.74V9.18h9.53v2.46h-6.86v9.65h6.94v2.45Zm1.25-6.24V15.09h7.22V17.5Z"/><path class="cls-1" d="M46.08,33.2H9.48l1.31-2.06,1.92-3,4.14-6.51L20.42,16H35.25a5.16,5.16,0,0,0,0-10.32H30.47L26.89,0h8.29a10.8,10.8,0,0,1,7.64,18.44,11,11,0,0,1-4.41,2.67,10.8,10.8,0,0,1-3.23.49H24L19.9,28.11H35.66l-2.85-4.49-1.28-2h3.65a10.8,10.8,0,0,0,3.23-.49L40,23.62l2.85,4.49,1.92,3Z"/><polygon class="cls-1" points="35.14 15.96 27.95 15.96 21.42 5.67 14.9 15.96 11.32 21.6 7.18 28.11 0 28.11 4.13 21.6 7.71 15.96 14.26 5.64 17.83 0.01 17.84 0 25.01 0 25.02 0.01 28.59 5.64 35.14 15.96"/><path class="cls-1" d="M11.52,5.76a5.76,5.76,0,0,0-5.76,5.75A5.76,5.76,0,0,0,0,5.76,5.76,5.76,0,0,0,5.76,0,5.76,5.76,0,0,0,11.52,5.76Z"/></g></g></svg>