<svg xmlns="http://www.w3.org/2000/svg" viewBox="0 0 121.51 54.16"><g id="Layer_2" data-name="Layer 2"><g id="Layer_2-2" data-name="Layer 2"><path d="M0,54V45.62H3.5A2.51,2.51,0,0,1,4.8,46a2.65,2.65,0,0,1,.93,1,2.57,2.57,0,0,1,.35,1.35,2.6,2.6,0,0,1-.35,1.36,2.63,2.63,0,0,1-.93,1A2.42,2.42,0,0,1,3.5,51H1.56V54Zm1.56-4.52H3.39a1,1,0,0,0,.55-.17,1.28,1.28,0,0,0,.39-.44,1.33,1.33,0,0,0,.15-.63,1.26,1.26,0,0,0-.15-.62,1.24,1.24,0,0,0-.39-.43,1,1,0,0,0-.55-.16H1.56Z"/><path d="M9.66,54V45.62h3.66A2.73,2.73,0,0,1,14.7,46a2.68,2.68,0,0,1,1,1,2.55,2.55,0,0,1,.37,1.36,2.45,2.45,0,0,1-.37,1.33,2.58,2.58,0,0,1-1,1,2.74,2.74,0,0,1-1.39.36H11.19V54Zm1.53-4.45h2.14a1.13,1.13,0,0,0,.61-.16,1.17,1.17,0,0,0,.4-.45,1.37,1.37,0,0,0,.14-.64,1.25,1.25,0,0,0-.18-.68,1.17,1.17,0,0,0-.5-.46,1.66,1.66,0,0,0-.75-.17H11.19ZM14.54,54l-2.14-3.8,1.62-.3,2.38,4.11Z"/><path d="M23.47,54.16a4.22,4.22,0,0,1-1.67-.33,4,4,0,0,1-1.34-.9,4.12,4.12,0,0,1-.88-1.38,5,5,0,0,1,0-3.46A4,4,0,0,1,21.8,45.8a4.4,4.4,0,0,1,1.67-.32,4.46,4.46,0,0,1,1.69.32,4,4,0,0,1,1.33.92,4.18,4.18,0,0,1,.88,1.37,5,5,0,0,1,0,3.45,4.12,4.12,0,0,1-.88,1.38,3.85,3.85,0,0,1-1.33.91A4.28,4.28,0,0,1,23.47,54.16Zm0-1.49a2.61,2.61,0,0,0,1.06-.21,2.42,2.42,0,0,0,.82-.6,3,3,0,0,0,.75-2,3.15,3.15,0,0,0-.2-1.13,3.07,3.07,0,0,0-.55-.91,2.42,2.42,0,0,0-.82-.6A2.61,2.61,0,0,0,23.47,47a2.58,2.58,0,0,0-1,.21,2.36,2.36,0,0,0-.83.6,2.7,2.7,0,0,0-.54.9,3.17,3.17,0,0,0-.19,1.14A3.25,3.25,0,0,0,21.06,51a2.8,2.8,0,0,0,.54.9,2.36,2.36,0,0,0,.83.6A2.58,2.58,0,0,0,23.47,52.67Z"/><path d="M31.3,54V45.62h3.5a2.51,2.51,0,0,1,1.3.35,2.65,2.65,0,0,1,.93,1,2.57,2.57,0,0,1,.35,1.35A2.71,2.71,0,0,1,36.1,50.6a2.42,2.42,0,0,1-1.3.36H32.86V54Zm1.56-4.52h1.83a1,1,0,0,0,.55-.17,1.28,1.28,0,0,0,.39-.44,1.33,1.33,0,0,0,.15-.63,1.26,1.26,0,0,0-.15-.62,1.24,1.24,0,0,0-.39-.43,1,1,0,0,0-.55-.16H32.86Z"/><path d="M41,54V45.62h5.51V47h-4v5.58h4V54Zm.72-3.61V49h4.18v1.39Z"/><path d="M50.4,54V45.62h3.65a2.68,2.68,0,0,1,1.38.36,2.79,2.79,0,0,1,1,1,2.63,2.63,0,0,1,.36,1.36,2.53,2.53,0,0,1-.36,1.33A2.76,2.76,0,0,1,54.05,51H51.93V54Zm1.53-4.45h2.13a1.06,1.06,0,0,0,1-.61,1.37,1.37,0,0,0,.15-.64,1.25,1.25,0,0,0-.18-.68,1.2,1.2,0,0,0-.51-.46,1.58,1.58,0,0,0-.74-.17H51.93ZM55.28,54l-2.14-3.8,1.61-.3,2.38,4.11Z"/><path d="M62.14,54v-7h-2.4V45.62h6.44v1.45H63.7v7Z"/><path d="M72,54v-4.2l.08.59-3.4-4.81h1.83l2.59,3.73-.56,0,2.34-3.69h1.76l-3.26,4.94.18-.81V54Z"/><path d="M88.77,54.16a4.47,4.47,0,0,1-1.67-.31,3.78,3.78,0,0,1-1.32-.9,4.21,4.21,0,0,1-.85-1.38,4.73,4.73,0,0,1-.31-1.75,4.55,4.55,0,0,1,.32-1.7,4.37,4.37,0,0,1,.91-1.37,4.13,4.13,0,0,1,1.34-.91,4.18,4.18,0,0,1,1.67-.32,3.94,3.94,0,0,1,1.19.18,3.83,3.83,0,0,1,1.06.5,3.13,3.13,0,0,1,.8.73l-1,1.1a4,4,0,0,0-.65-.55,2.71,2.71,0,0,0-.68-.34,2.58,2.58,0,0,0-.73-.11,2.79,2.79,0,0,0-1,.2,2.58,2.58,0,0,0-.84.58,2.7,2.7,0,0,0-.56.89,3.11,3.11,0,0,0-.2,1.13,3.07,3.07,0,0,0,.2,1.16,2.5,2.5,0,0,0,.56.88,2.55,2.55,0,0,0,.88.58,3.1,3.1,0,0,0,1.12.19,2.8,2.8,0,0,0,.77-.1,3.09,3.09,0,0,0,.69-.31,3.74,3.74,0,0,0,.59-.46L91.79,53a2.6,2.6,0,0,1-.76.59A4.5,4.5,0,0,1,90,54,4.83,4.83,0,0,1,88.77,54.16Z"/><path d="M94.4,54l3.28-8.42h1.47L102.41,54h-1.62L99,49.25c0-.09-.09-.24-.16-.45l-.22-.68-.22-.69c-.06-.21-.11-.36-.14-.46h.3l-.17.54c-.06.2-.13.41-.2.62l-.22.63c-.06.2-.13.38-.18.54L96,54Zm1.49-1.92.54-1.36h3.84l.58,1.36Z"/><path d="M105.65,54V45.62h3.66a2.73,2.73,0,0,1,1.38.36,2.68,2.68,0,0,1,1,1,2.55,2.55,0,0,1,.37,1.36,2.45,2.45,0,0,1-.37,1.33,2.58,2.58,0,0,1-1,1,2.74,2.74,0,0,1-1.39.36h-2.13V54Zm1.53-4.45h2.14a1.13,1.13,0,0,0,.61-.16,1.17,1.17,0,0,0,.4-.45,1.37,1.37,0,0,0,.14-.64,1.25,1.25,0,0,0-.18-.68,1.23,1.23,0,0,0-.5-.46A1.66,1.66,0,0,0,109,47h-1.86ZM110.53,54l-2.14-3.8,1.61-.3,2.38,4.11Z"/><path d="M116,54V45.62h5.51V47h-4v5.58h4V54Zm.73-3.61V49h4.17v1.39Z"/><path d="M83.89,33.33H47.14l1.32-2.07,1.92-3,4.15-6.54L58.13,16H73A5.18,5.18,0,0,0,73,5.66H68.22L64.62,0h8.32a10.84,10.84,0,1,1,0,21.68H61.75L57.6,28.22H73.43l-2.87-4.51-1.28-2h3.66a10.81,10.81,0,0,0,3.24-.49l1.6,2.52,2.86,4.51,1.93,3Z"/><polygon points="72.9 16.02 65.68 16.02 59.13 5.7 52.58 16.02 48.98 21.68 44.83 28.22 37.62 28.22 41.77 21.68 45.36 16.02 51.94 5.66 55.52 0.01 55.53 0 62.73 0 62.74 0.01 66.33 5.66 72.9 16.02"/><path d="M49.19,5.78a5.78,5.78,0,0,0-5.78,5.78,5.78,5.78,0,0,0-5.79-5.78A5.78,5.78,0,0,0,43.41,0,5.78,5.78,0,0,0,49.19,5.78Z"/></g></g></svg>