<?xml version="1.0" encoding="UTF-8"?>
<svg xmlns="http://www.w3.org/2000/svg" xmlns:xlink="http://www.w3.org/1999/xlink" width="16px" height="12px" viewBox="0 0 16 12" version="1.1">
<g id="surface1">
<path style=" stroke:none;fill-rule:nonzero;fill:rgb(0%,0%,0%);fill-opacity:1;" d="M 15.96875 12 L 3.3125 12 L 3.761719 11.253906 L 4.425781 10.175781 L 5.855469 7.820312 L 7.097656 5.761719 L 12.21875 5.761719 C 13.207031 5.761719 14.003906 4.925781 14.003906 3.894531 C 14.003906 2.867188 13.207031 2.03125 12.21875 2.03125 L 10.570312 2.03125 L 9.332031 0 L 12.195312 0 C 14.257812 0 15.929688 1.746094 15.929688 3.902344 C 15.929688 6.058594 14.257812 7.804688 12.195312 7.804688 L 8.34375 7.804688 L 6.921875 10.160156 L 12.363281 10.160156 L 11.375 8.535156 L 10.9375 7.816406 L 12.195312 7.816406 C 12.574219 7.816406 12.949219 7.757812 13.3125 7.640625 L 13.863281 8.546875 L 14.839844 10.160156 L 15.503906 11.242188 Z M 15.96875 12 "/>
<path style=" stroke:none;fill-rule:nonzero;fill:rgb(0%,0%,0%);fill-opacity:1;" d="M 12.183594 5.769531 L 9.695312 5.769531 L 7.441406 2.050781 L 5.183594 5.769531 L 3.945312 7.804688 L 2.515625 10.160156 L 0.03125 10.160156 L 1.460938 7.804688 L 2.699219 5.769531 L 4.964844 2.039062 L 6.195312 0.00390625 L 6.199219 0 L 8.679688 0 L 8.683594 0.00390625 L 9.917969 2.039062 Z M 12.183594 5.769531 "/>
<path style=" stroke:none;fill-rule:nonzero;fill:rgb(0%,0%,0%);fill-opacity:1;" d="M 4.015625 2.082031 C 3.484375 2.082031 2.980469 2.300781 2.609375 2.691406 C 2.234375 3.082031 2.027344 3.609375 2.027344 4.160156 C 2.027344 3.609375 1.816406 3.078125 1.441406 2.6875 C 1.070312 2.300781 0.5625 2.078125 0.03125 2.082031 C 0.5625 2.082031 1.070312 1.863281 1.441406 1.472656 C 1.816406 1.082031 2.027344 0.550781 2.027344 0 C 2.027344 0.550781 2.234375 1.082031 2.609375 1.472656 C 2.980469 1.863281 3.484375 2.082031 4.015625 2.082031 Z M 4.015625 2.082031 "/>
</g>
</svg>
